{"accessors" : [{"bufferView" : 0, "byteOffset" : 0, "componentType" : 5123, "count" : 864, "type" : "SCALAR", "max" : [719], "min" : [0]}, {"bufferView" : 1, "byteOffset" : 0, "componentType" : 5126, "count" : 720, "type" : "VEC3", "max" : [85.36309814453125, 81.28089904785156, -2.248500108718872], "min" : [-63.7239990234375, -69.63670349121094, -2.829699993133545], "name" : "POSITION"}, {"bufferView" : 1, "byteOffset" : 12, "componentType" : 5126, "count" : 720, "type" : "VEC2", "max" : [0.5810999870300293, -0.8529000282287598], "min" : [0.19089999794960022, -0.9930999875068665], "name" : "TEXCOORD_0"}, {"bufferView" : 1, "byteOffset" : 20, "componentType" : 5126, "count" : 720, "type" : "VEC3", "max" : [1.0000044107437134, 1.0000044107437134, 1.0000044107437134], "min" : [-1.0000044107437134, -1.0000044107437134, -1.0000044107437134], "name" : "NORMAL"}, {"bufferView" : 0, "byteOffset" : 1728, "componentType" : 5123, "count" : 12096, "type" : "SCALAR", "max" : [10079], "min" : [0]}, {"bufferView" : 2, "byteOffset" : 0, "componentType" : 5126, "count" : 10080, "type" : "VEC3", "max" : [88.26629638671875, 80.01200103759766, -2.330899953842163], "min" : [-66.6272964477539, -68.60990142822266, -3.0088999271392822], "name" : "POSITION"}, {"bufferView" : 2, "byteOffset" : 12, "componentType" : 5126, "count" : 10080, "type" : "VEC2", "max" : [0.9930999875068665, -0.004900000058114529], "min" : [0.006099999882280827, -0.9957000017166138], "name" : "TEXCOORD_0"}, {"bufferView" : 2, "byteOffset" : 20, "componentType" : 5126, "count" : 10080, "type" : "VEC3", "max" : [1.0000044107437134, 1.0000044107437134, 1.0000044107437134], "min" : [-1.0000044107437134, -1.0000044107437134, -1.0000044107437134], "name" : "NORMAL"}, {"bufferView" : 0, "byteOffset" : 25920, "componentType" : 5123, "count" : 3396, "type" : "SCALAR", "max" : [2858], "min" : [0]}, {"bufferView" : 3, "byteOffset" : 0, "componentType" : 5126, "count" : 2859, "type" : "VEC3", "max" : [94.18409729003906, 58.25199890136719, -1.1273000240325928], "min" : [-72.54499816894531, -46.7046012878418, -7.452300071716309], "name" : "POSITION"}, {"bufferView" : 3, "byteOffset" : 12, "componentType" : 5126, "count" : 2859, "type" : "VEC2", "max" : [0.680400013923645, -0.013700000010430813], "min" : [0.20260000228881836, -0.8034999966621399], "name" : "TEXCOORD_0"}, {"bufferView" : 3, "byteOffset" : 20, "componentType" : 5126, "count" : 2859, "type" : "VEC3", "max" : [1.0000044107437134, 1.0000044107437134, 1.0000044107437134], "min" : [-1.0000044107437134, -1.0000044107437134, -1.0000044107437134], "name" : "NORMAL"}, {"bufferView" : 0, "byteOffset" : 32712, "componentType" : 5123, "count" : 168, "type" : "SCALAR", "max" : [139], "min" : [0]}, {"bufferView" : 4, "byteOffset" : 0, "componentType" : 5126, "count" : 140, "type" : "VEC3", "max" : [90.47470092773438, 81.73609924316406, -1.7980999946594238], "min" : [-68.83560180664062, -70.14029693603516, -4.70389986038208], "name" : "POSITION"}, {"bufferView" : 4, "byteOffset" : 12, "componentType" : 5126, "count" : 140, "type" : "VEC2", "max" : [0.9950000047683716, -0.00430000014603138], "min" : [0.006000000052154064, -0.984499990940094], "name" : "TEXCOORD_0"}, {"bufferView" : 4, "byteOffset" : 20, "componentType" : 5126, "count" : 140, "type" : "VEC3", "max" : [1.0000044107437134, 1.0000044107437134, 1.0000044107437134], "min" : [-1.0000044107437134, -1.0000044107437134, -1.0000044107437134], "name" : "NORMAL"}], "asset" : {"generator" : "Aspose.3D 22.3", "version" : "2.0"}, "buffers" : [{"uri" : "data:application/octet-stream;base64,", "byteLength" : 561836}], "bufferViews" : [{"buffer" : 0, "byteOffset" : 0, "byteLength" : 33048, "target" : 34963}, {"buffer" : 0, "byteOffset" : 33052, "byteLength" : 27648, "byteStride" : 32, "target" : 34962}, {"buffer" : 0, "byteOffset" : 60704, "byteLength" : 387072, "byteStride" : 32, "target" : 34962}, {"buffer" : 0, "byteOffset" : 447780, "byteLength" : 108672, "byteStride" : 32, "target" : 34962}, {"buffer" : 0, "byteOffset" : 556456, "byteLength" : 5376, "byteStride" : 32, "target" : 34962}], "meshes" : [{"primitives" : [{"attributes" : {"POSITION" : 1, "TEXCOORD_0" : 2, "NORMAL" : 3}, "indices" : 0, "mode" : 4}], "name" : ""}, {"primitives" : [{"attributes" : {"POSITION" : 5, "TEXCOORD_0" : 6, "NORMAL" : 7}, "indices" : 4, "mode" : 4}], "name" : ""}, {"primitives" : [{"attributes" : {"POSITION" : 9, "TEXCOORD_0" : 10, "NORMAL" : 11}, "indices" : 8, "mode" : 4}], "name" : ""}, {"primitives" : [{"attributes" : {"POSITION" : 13, "TEXCOORD_0" : 14, "NORMAL" : 15}, "indices" : 12, "mode" : 4}], "name" : ""}], "nodes" : [{"mesh" : 0, "name" : "wire"}, {"mesh" : 1, "name" : "small_032panels"}, {"mesh" : 2, "name" : "Default"}, {"mesh" : 3, "name" : "panel"}], "scene" : 0, "scenes" : [{"nodes" : [0, 1, 2, 3]}]}